# Exported from Wings 3D 2.2.6.1
mtllib PlayerMovement.mtl
o cone1
#42 vertices, 76 faces
v 0.25000000 0.0000000e+0 0.0000000e+0
v 0.0000000e+0 -0.25000000 0.0000000e+0
v -0.25000000 0.0000000e+0 0.0000000e+0
v 0.0000000e+0 0.25000000 0.0000000e+0
v 2.2204460e-17 5.8943864e-17 1.00000000
v 0.12500000 0.21650635 0.0000000e+0
v -0.12500000 0.21650635 1.5308085e-17
v -0.10825318 0.21650635 -6.2500000e-2
v -6.2500000e-2 0.21650635 -0.10825318
v -2.2962127e-17 0.21650635 -0.12500000
v 6.2500000e-2 0.21650635 -0.10825318
v 0.10825318 0.21650635 -6.2500000e-2
v 0.21650635 0.12500000 0.0000000e+0
v -0.21650635 0.12500000 2.6514381e-17
v -0.18750000 0.12500000 -0.10825318
v -0.10825318 0.12500000 -0.18750000
v -3.9771571e-17 0.12500000 -0.21650635
v 0.10825318 0.12500000 -0.18750000
v 0.18750000 0.12500000 -0.10825318
v 0.25000000 0.0000000e+0 0.0000000e+0
v -0.25000000 0.0000000e+0 3.0616170e-17
v -0.21650635 0.0000000e+0 -0.12500000
v -0.12500000 0.0000000e+0 -0.21650635
v -4.5924255e-17 0.0000000e+0 -0.25000000
v 0.12500000 0.0000000e+0 -0.21650635
v 0.21650635 0.0000000e+0 -0.12500000
v 0.21650635 -0.12500000 0.0000000e+0
v -0.21650635 -0.12500000 2.6514381e-17
v -0.18750000 -0.12500000 -0.10825318
v -0.10825318 -0.12500000 -0.18750000
v -3.9771571e-17 -0.12500000 -0.21650635
v 0.10825318 -0.12500000 -0.18750000
v 0.18750000 -0.12500000 -0.10825318
v 0.12500000 -0.21650635 0.0000000e+0
v -0.12500000 -0.21650635 1.5308085e-17
v -0.10825318 -0.21650635 -6.2500000e-2
v -6.2500000e-2 -0.21650635 -0.10825318
v -2.2962127e-17 -0.21650635 -0.12500000
v 6.2500000e-2 -0.21650635 -0.10825318
v 0.10825318 -0.21650635 -6.2500000e-2
v 0.0000000e+0 0.25000000 0.0000000e+0
v 0.0000000e+0 -0.25000000 0.0000000e+0
vt 0.0000000e+0 0.0000000e+0
vt 0.0000000e+0 0.57396968
vt 0.0000000e+0 0.71317777
vt 0.0000000e+0 0.92612482
vt 7.9417669e-3 1.00000000
vt 8.2849555e-3 0.85238587
vt 7.0815127e-2 0.92624020
vt 7.2236571e-2 0.99742338
vt 7.2481950e-2 0.85526694
vt 0.13687517 0.99711893
vt 0.13712054 0.85496249
vt 0.13854199 0.92614567
vt 0.13920809 0.85238587
vt 0.13920809 0.57396968
vt 0.19395322 0.54020676
vt 0.19395322 0.54020676
vt 0.20107216 1.00000000
vt 0.20141535 0.85238587
vt 0.20935712 0.92626105
vt 0.27841619 0.71317777
vt 0.29706654 0.64357373
vt 0.29706654 0.78278182
vt 0.34802024 0.59262003
vt 0.34802024 0.83373552
vt 0.38790644 0.57396968
vt 0.38790644 0.0000000e+0
vt 0.38790644 0.15812912
vt 0.38790644 0.40701455
vt 0.41409343 0.46586169
vt 0.41762428 0.57396968
vt 0.41762428 0.85238587
vt 0.46022233 0.38970965
vt 0.46148118 0.50950241
vt 0.47277165 0.42372767
vt 0.48722833 0.83373552
vt 0.48722833 0.59262003
vt 0.49743394 0.44791761
vt 0.52282608 0.52965642
vt 0.52952001 0.45866387
vt 0.53627042 0.38707233
vt 0.53818203 0.64357373
vt 0.53818203 0.78278182
vt 0.55683238 0.71162593
vt 0.55683238 0.71317777
vt 0.55945324 0.78458735
vt 0.56304927 0.45410452
vt 0.56860499 0.63954539
vt 0.58685697 0.52132418
vt 0.59179846 0.43495078
vt 0.61048522 0.40387803
vt 0.62264980 0.78655541
vt 0.62718881 0.71607889
vt 0.63157132 0.64553628
vt 0.64156682 0.48731029
vt 0.64710248 0.57396968
vt 0.67829194 0.43439518
vt 0.67829194 0.48118944
vt 0.68370262 0.57505530
vt 0.68578203 0.79299756
vt 0.69496462 0.64741663
vt 0.69770174 0.72059793
vt 0.69770174 0.71778325
vt 0.70105991 0.64580213
vt 0.70399569 0.78956726
vt 0.71279860 0.57470528
vt 0.71721262 0.39438700
vt 0.73000957 0.42932004
vt 0.73065039 0.51700079
vt 0.74882080 0.57396968
vt 0.75837003 0.45112762
vt 0.76345218 0.64452803
vt 0.76638796 0.78829317
vt 0.76974613 0.71631205
vt 0.79125863 0.38707233
vt 0.79207635 0.45842337
vt 0.79289060 0.52947263
vt 0.82560661 0.45035706
vt 0.85345984 0.42790525
vt 0.85482864 0.51557766
vt 0.86545283 0.39268811
vt 0.90635262 0.47857576
vt 0.91423923 0.38707233
vt 0.93966398 0.0000000e+0
vt 0.96064192 0.19574911
vn 0.64456735 5.1386083e-17 -0.76454754
vn 0.0000000e+0 -0.90569536 -0.42392913
vn -0.64456735 0.0000000e+0 -0.76454754
vn 7.2203684e-17 0.90569536 -0.42392913
vn 1.5944364e-16 0.0000000e+0 1.00000000
vn 0.50416388 0.72000731 0.47687341
vn -0.42832720 0.61170331 0.66509764
vn -0.43148095 0.86704417 -0.24911564
vn -0.28679178 0.81914705 -0.49673794
vn -9.4324939e-17 0.86704417 -0.49823128
vn 0.28679178 0.81914705 -0.49673794
vn 0.43148095 0.86704417 -0.24911564
vn 0.51233039 0.29714872 0.80574202
vn -0.51233039 0.29714872 0.80574202
vn -0.74914083 0.50171442 -0.43251666
vn -0.43251666 0.50171442 -0.74914083
vn -2.7620664e-16 0.50171442 -0.86503332
vn 0.43251666 0.50171442 -0.74914083
vn 0.74914083 0.50171442 -0.43251666
vn 0.88207462 3.8691404e-18 0.47110971
vn -0.88207462 -8.2413078e-17 0.47110971
vn -0.86602540 2.0777061e-16 -0.50000000
vn -0.50000000 1.1872607e-16 -0.86602540
vn -2.0777061e-16 1.1872607e-16 -1.00000000
vn 0.50000000 1.1130569e-16 -0.86602540
vn 0.86602540 1.6324834e-16 -0.50000000
vn 0.51233039 -0.29714872 0.80574202
vn -0.51233039 -0.29714872 0.80574202
vn -0.74914083 -0.50171442 -0.43251666
vn -0.43251666 -0.50171442 -0.74914083
vn -3.4617899e-16 -0.50171442 -0.86503332
vn 0.43251666 -0.50171442 -0.74914083
vn 0.74914083 -0.50171442 -0.43251666
vn 0.42832720 -0.61170331 0.66509764
vn -0.50416388 -0.72000731 0.47687341
vn -0.43148095 -0.86704417 -0.24911564
vn -0.28679178 -0.81914705 -0.49673794
vn -7.9813410e-17 -0.86704417 -0.49823128
vn 0.28679178 -0.81914705 -0.49673794
vn 0.43148095 -0.86704417 -0.24911564
vn -5.6616955e-17 0.99998391 -5.6722437e-3
vn -5.6616955e-17 -0.99998391 -5.6722437e-3
g cone1
usemtl cone1_auv
s 1
f 1/3/1 3/20/3 4/13/4
f 1/84/1 5/27/5 2/83/2
f 2/14/2 3/20/3 1/3/1
f 2/2/2 5/1/5 3/16/3
f 3/15/3 5/26/5 4/25/4
f 4/82/4 5/27/5 1/84/1
f 6/35/6 7/24/7 13/42/13
f 6/50/6 19/54/19 12/49/12
f 7/32/7 15/29/15 14/28/14
f 7/32/7 41/40/41 8/34/8
f 8/34/8 15/29/15 7/32/7
f 8/34/8 41/40/41 9/37/9
f 9/37/9 15/29/15 8/34/8
f 9/37/9 17/38/17 16/33/16
f 9/37/9 41/40/41 10/39/10
f 10/39/10 17/38/17 9/37/9
f 10/39/10 41/40/41 11/46/11
f 11/46/11 17/38/17 10/39/10
f 11/46/11 19/54/19 18/48/18
f 11/46/11 41/40/41 12/49/12
f 12/49/12 19/54/19 11/46/11
f 12/49/12 41/40/41 6/50/6
f 13/42/13 14/22/14 20/44/20
f 13/56/13 19/54/19 6/50/6
f 13/64/13 20/62/20 19/72/19
f 14/22/14 13/42/13 7/24/7
f 15/51/15 21/61/21 14/59/14
f 15/51/15 23/43/23 22/52/22
f 16/33/16 15/29/15 9/37/9
f 16/45/16 23/43/23 15/51/15
f 17/10/17 23/19/23 16/17/16
f 17/10/17 25/7/25 24/12/24
f 18/48/18 17/38/17 11/46/11
f 18/8/18 25/7/25 17/10/17
f 19/72/19 20/62/20 26/73/26
f 19/5/19 25/7/25 18/8/18
f 20/44/20 21/20/21 27/41/27
f 20/62/20 33/71/33 26/73/26
f 21/20/21 20/44/20 14/22/14
f 21/61/21 29/53/29 28/60/28
f 22/52/22 21/61/21 15/51/15
f 22/52/22 29/53/29 21/61/21
f 23/43/23 29/53/29 22/52/22
f 23/19/23 31/11/31 30/18/30
f 24/12/24 23/19/23 17/10/17
f 24/12/24 31/11/31 23/19/23
f 25/7/25 31/11/31 24/12/24
f 25/7/25 33/6/33 32/9/32
f 26/4/26 25/7/25 19/5/19
f 26/4/26 33/6/33 25/7/25
f 27/41/27 28/21/28 34/36/34
f 27/63/27 33/71/33 20/62/20
f 27/63/27 34/65/34 33/71/33
f 28/21/28 27/41/27 21/20/21
f 29/53/29 35/58/35 28/60/28
f 29/81/29 37/77/37 36/78/36
f 30/47/30 29/53/29 23/43/23
f 30/79/30 37/77/37 29/81/29
f 31/76/31 37/77/37 30/79/30
f 31/76/31 39/70/39 38/75/38
f 32/9/32 31/11/31 25/7/25
f 32/68/32 39/70/39 31/76/31
f 33/71/33 34/65/34 40/69/40
f 33/57/33 39/70/39 32/68/32
f 34/36/34 35/23/35 42/30/42
f 34/66/34 42/74/42 40/67/40
f 35/23/35 34/36/34 28/21/28
f 36/55/36 35/58/35 29/53/29
f 36/78/36 42/74/42 35/80/35
f 37/77/37 42/74/42 36/78/36
f 38/75/38 37/77/37 31/76/31
f 38/75/38 42/74/42 37/77/37
f 39/70/39 42/74/42 38/75/38
f 40/67/40 39/70/39 33/57/33
f 40/67/40 42/74/42 39/70/39
f 41/31/41 7/24/7 6/35/6
