# Exported from Wings 3D 2.2.6.1
mtllib PlayerMovement.mtl
o cone1
#42 vertices, 76 faces
v 0.25000000 0.0000000e+0 0.0000000e+0
v 0.0000000e+0 -0.25000000 0.0000000e+0
v -0.25000000 0.0000000e+0 0.0000000e+0
v 0.0000000e+0 0.25000000 0.0000000e+0
v 2.2204460e-17 5.8943864e-17 1.00000000
v 0.12500000 0.21650635 0.0000000e+0
v -0.12500000 0.21650635 1.5308085e-17
v -0.10825318 0.21650635 -6.2500000e-2
v -6.2500000e-2 0.21650635 -0.10825318
v -2.2962127e-17 0.21650635 -0.12500000
v 6.2500000e-2 0.21650635 -0.10825318
v 0.10825318 0.21650635 -6.2500000e-2
v 0.21650635 0.12500000 0.0000000e+0
v -0.21650635 0.12500000 2.6514381e-17
v -0.18750000 0.12500000 -0.10825318
v -0.10825318 0.12500000 -0.18750000
v -3.9771571e-17 0.12500000 -0.21650635
v 0.10825318 0.12500000 -0.18750000
v 0.18750000 0.12500000 -0.10825318
v 0.25000000 0.0000000e+0 0.0000000e+0
v -0.25000000 0.0000000e+0 3.0616170e-17
v -0.21650635 0.0000000e+0 -0.12500000
v -0.12500000 0.0000000e+0 -0.21650635
v -4.5924255e-17 0.0000000e+0 -0.25000000
v 0.12500000 0.0000000e+0 -0.21650635
v 0.21650635 0.0000000e+0 -0.12500000
v 0.21650635 -0.12500000 0.0000000e+0
v -0.21650635 -0.12500000 2.6514381e-17
v -0.18750000 -0.12500000 -0.10825318
v -0.10825318 -0.12500000 -0.18750000
v -3.9771571e-17 -0.12500000 -0.21650635
v 0.10825318 -0.12500000 -0.18750000
v 0.18750000 -0.12500000 -0.10825318
v 0.12500000 -0.21650635 0.0000000e+0
v -0.12500000 -0.21650635 1.5308085e-17
v -0.10825318 -0.21650635 -6.2500000e-2
v -6.2500000e-2 -0.21650635 -0.10825318
v -2.2962127e-17 -0.21650635 -0.12500000
v 6.2500000e-2 -0.21650635 -0.10825318
v 0.10825318 -0.21650635 -6.2500000e-2
v 0.0000000e+0 0.25000000 0.0000000e+0
v 0.0000000e+0 -0.25000000 0.0000000e+0
vt 0.0000000e+0 0.40000000
vt 0.0000000e+0 1.00000000
vt 1.3877788e-16 0.50000000
vt 0.30000000 0.0000000e+0
vt 0.30000000 0.50000000
vt 0.30000000 0.72360680
vt 0.30000000 0.90000000
vt 0.30000000 0.0000000e+0
vt 0.52360680 0.50000000
vt 0.52360680 0.94721360
vt 0.60000000 0.40000000
vt 0.60000000 0.40000000
vt 0.74721360 0.72360680
vt 0.90000000 0.50000000
vt 0.90000000 0.0000000e+0
vn 0.64456735 5.1386083e-17 -0.76454754
vn 0.0000000e+0 -0.90569536 -0.42392913
vn -0.64456735 0.0000000e+0 -0.76454754
vn 7.2203684e-17 0.90569536 -0.42392913
vn 1.5944364e-16 0.0000000e+0 1.00000000
vn 0.50416388 0.72000731 0.47687341
vn -0.42832720 0.61170331 0.66509764
vn -0.43148095 0.86704417 -0.24911564
vn -0.28679178 0.81914705 -0.49673794
vn -9.4324939e-17 0.86704417 -0.49823128
vn 0.28679178 0.81914705 -0.49673794
vn 0.43148095 0.86704417 -0.24911564
vn 0.51233039 0.29714872 0.80574202
vn -0.51233039 0.29714872 0.80574202
vn -0.74914083 0.50171442 -0.43251666
vn -0.43251666 0.50171442 -0.74914083
vn -2.7620664e-16 0.50171442 -0.86503332
vn 0.43251666 0.50171442 -0.74914083
vn 0.74914083 0.50171442 -0.43251666
vn 0.88207462 3.8691404e-18 0.47110971
vn -0.88207462 -8.2413078e-17 0.47110971
vn -0.86602540 2.0777061e-16 -0.50000000
vn -0.50000000 1.1872607e-16 -0.86602540
vn -2.0777061e-16 1.1872607e-16 -1.00000000
vn 0.50000000 1.1130569e-16 -0.86602540
vn 0.86602540 1.6324834e-16 -0.50000000
vn 0.51233039 -0.29714872 0.80574202
vn -0.51233039 -0.29714872 0.80574202
vn -0.74914083 -0.50171442 -0.43251666
vn -0.43251666 -0.50171442 -0.74914083
vn -3.4617899e-16 -0.50171442 -0.86503332
vn 0.43251666 -0.50171442 -0.74914083
vn 0.74914083 -0.50171442 -0.43251666
vn 0.42832720 -0.61170331 0.66509764
vn -0.50416388 -0.72000731 0.47687341
vn -0.43148095 -0.86704417 -0.24911564
vn -0.28679178 -0.81914705 -0.49673794
vn -7.9813410e-17 -0.86704417 -0.49823128
vn 0.28679178 -0.81914705 -0.49673794
vn 0.43148095 -0.86704417 -0.24911564
vn -5.6616955e-17 0.99998391 -5.6722437e-3
vn -5.6616955e-17 -0.99998391 -5.6722437e-3
g cone1
usemtl cone1_auv
s 1
f 1/6/1 3/13/3 4/10/4
f 1/1/1 5/4/5 2/5/2
f 2/9/2 3/13/3 1/6/1
f 2/2/2 5/3/5 3/7/3
f 3/11/3 5/15/5 4/14/4
f 4/5/4 5/8/5 1/12/1
usemtl default
s 1
f 6//6 7//7 13//13
f 6//6 19//19 12//12
f 7//7 15//15 14//14
f 7//7 41//41 8//8
f 8//8 15//15 7//7
f 8//8 41//41 9//9
f 9//9 15//15 8//8
f 9//9 17//17 16//16
f 9//9 41//41 10//10
f 10//10 17//17 9//9
f 10//10 41//41 11//11
f 11//11 17//17 10//10
f 11//11 19//19 18//18
f 11//11 41//41 12//12
f 12//12 19//19 11//11
f 12//12 41//41 6//6
f 13//13 14//14 20//20
f 13//13 19//19 6//6
f 13//13 20//20 19//19
f 14//14 13//13 7//7
f 15//15 21//21 14//14
f 15//15 23//23 22//22
f 16//16 15//15 9//9
f 16//16 23//23 15//15
f 17//17 23//23 16//16
f 17//17 25//25 24//24
f 18//18 17//17 11//11
f 18//18 25//25 17//17
f 19//19 20//20 26//26
f 19//19 25//25 18//18
f 20//20 21//21 27//27
f 20//20 33//33 26//26
f 21//21 20//20 14//14
f 21//21 29//29 28//28
f 22//22 21//21 15//15
f 22//22 29//29 21//21
f 23//23 29//29 22//22
f 23//23 31//31 30//30
f 24//24 23//23 17//17
f 24//24 31//31 23//23
f 25//25 31//31 24//24
f 25//25 33//33 32//32
f 26//26 25//25 19//19
f 26//26 33//33 25//25
f 27//27 28//28 34//34
f 27//27 33//33 20//20
f 27//27 34//34 33//33
f 28//28 27//27 21//21
f 29//29 35//35 28//28
f 29//29 37//37 36//36
f 30//30 29//29 23//23
f 30//30 37//37 29//29
f 31//31 37//37 30//30
f 31//31 39//39 38//38
f 32//32 31//31 25//25
f 32//32 39//39 31//31
f 33//33 34//34 40//40
f 33//33 39//39 32//32
f 34//34 35//35 42//42
f 34//34 42//42 40//40
f 35//35 34//34 28//28
f 36//36 35//35 29//29
f 36//36 42//42 35//35
f 37//37 42//42 36//36
f 38//38 37//37 31//31
f 38//38 42//42 37//37
f 39//39 42//42 38//38
f 40//40 39//39 33//33
f 40//40 42//42 39//39
f 41//41 7//7 6//6
