# Exported from Wings 3D 2.2.6.1
mtllib TileHitBox.mtl
o Cube1
#8 vertices, 12 faces
v -2.00000000 -1.00000000 -2.00000000
v -2.00000000 -1.00000000 2.00000000
v -2.00000000 0.0000000e+0 -2.00000000
v -2.00000000 0.0000000e+0 2.00000000
v 2.00000000 -1.00000000 -2.00000000
v 2.00000000 -1.00000000 2.00000000
v 2.00000000 0.0000000e+0 -2.00000000
v 2.00000000 0.0000000e+0 2.00000000
vt 0.0000000e+0 0.50000000
vt 0.0000000e+0 0.50000000
vt 0.0000000e+0 0.62500000
vt 0.0000000e+0 0.75000000
vt 0.0000000e+0 0.87500000
vt 0.0000000e+0 1.00000000
vt 1.1102230e-16 0.0000000e+0
vt 0.50000000 0.62500000
vt 0.50000000 0.75000000
vt 0.50000000 0.50000000
vt 0.50000000 0.50000000
vt 0.50000000 0.62500000
vt 0.50000000 0.75000000
vt 0.50000000 0.87500000
vt 0.50000000 1.00000000
vt 0.50000000 0.0000000e+0
vt 0.50000000 8.3266727e-17
vt 0.50000000 0.50000000
vt 1.00000000 0.0000000e+0
vt 1.00000000 0.50000000
vn -0.57735027 -0.57735027 -0.57735027
vn -0.57735027 -0.57735027 0.57735027
vn -0.57735027 0.57735027 -0.57735027
vn -0.57735027 0.57735027 0.57735027
vn 0.57735027 -0.57735027 -0.57735027
vn 0.57735027 -0.57735027 0.57735027
vn 0.57735027 0.57735027 -0.57735027
vn 0.57735027 0.57735027 0.57735027
g Cube1
usemtl Cube1_auv
s 1
f 1/20/1 5/18/5 2/19/2
f 2/14/2 3/6/3 1/5/1
f 2/19/2 5/18/5 6/16/6
f 2/4/2 8/14/8 4/5/4
f 3/8/3 5/2/5 1/11/1
f 3/1/3 8/17/8 7/10/7
f 4/15/4 3/6/3 2/14/2
f 4/7/4 8/17/8 3/1/3
f 5/12/5 8/4/8 6/3/6
f 6/13/6 8/14/8 2/4/2
f 7/3/7 5/2/5 3/8/3
f 7/9/7 8/4/8 5/12/5
